ply
format ascii 1.0
element vertex 865
property double x
property double y
property double z
end_header
8.845695615365141 33.939017160466797 79.661432416862439
13.267306079612284 33.202031288019704 80.930154817879242
14.002877115513783 35.024252622317427 79.411459160012811
10.114861238854481 30.727733364480134 81.764908550583854
4.780992338204552 30.295315772768216 80.548686475307221
11.931106047357062 36.506069293538559 77.682995187927673
6.763693725351735 35.721842288154953 77.087120867880500
17.632395510704857 32.918805212842855 79.784812020890570
3.036883997781628 32.512789322859717 78.060647931751333
17.163865848937409 35.792026966957451 77.596700705144372
10.259075347145584 37.928282052545214 75.961960459748681
15.546431842180947 29.936162106786654 81.518014749677931
7.346901051553458 26.747303929026518 82.210191117937171
2.339236499017342 26.292895131180817 81.082081054797698
15.000752600625159 38.252556117406982 75.639806686885265
6.942061412211040 37.560100098704389 75.176946365981095
12.796534335156347 26.351884213590928 82.269372853889237
-0.483345567392925 28.004830493535653 78.539218132416536
2.377699283638211 34.656054567534916 75.430357373149917
11.769239678814175 39.906008082625192 73.943929104784871
4.469483981400979 22.378101081845813 82.467439036687153
0.450997445978811 22.516160068178710 81.383259703644541
21.585982670557911 32.869421406783324 77.441849903184419
-0.813294684868848 30.869335304950109 76.403471798561924
-1.291569938896550 24.190619548559226 79.848961725618835
17.322455178677675 39.893649184477468 73.562496685207179
20.410097286657344 36.829616603499197 74.750670829341544
5.287566937715757 38.602008418285330 73.250305646711681
17.757339916621120 25.618317788151963 81.306506477767016
21.446085534709923 27.950057482432541 79.552131320234508
10.288786890910165 42.311940831561195 71.805520489266172
16.078018189834214 42.139828316693055 71.824879326430306
0.639936306262494 35.485535417326396 73.404241191105797
-1.971642313533311 31.937029033042677 74.367932102046169
10.819530136569441 21.105773624991937 82.200338107312746
0.397036622735470 18.153157604486495 82.244700517040485
-4.119006142211503 22.882214779927320 77.990912746056352
24.021168208987412 33.040809875278377 74.981638523611693
-3.312876383612966 19.205264698014354 79.917827384622683
16.235650532620415 22.333172478977609 81.402476288488629
5.504454279213808 41.507562765257859 71.172620954174590
-4.356008321126392 26.758118156667731 75.713951577361385
20.551695627320601 39.566175321572224 71.755206000762541
14.067271735931586 44.610275719162800 70.065476023471376
25.392433754894252 28.456635925253146 76.625913798617205
5.380293266084446 15.967835289068068 83.353855014058169
-2.075952250511727 34.067514445683074 72.520720087823690
1.064409640936712 38.152055590710056 71.334340593304844
8.714260871227040 44.500125795737773 69.688061020812455
-0.153115909640325 13.823670587279317 83.543394084452686
-5.814761240662938 18.997374200979465 78.051923981689569
23.750609296615611 35.131406279683588 72.306309202634594
18.696739278440408 42.580020030638487 69.768054291982509
-5.362127863456763 29.731582683430780 72.892451043095775
1.408007789279300 10.452008284041067 85.900023451320834
16.379994750991592 44.842356492946266 68.764463668907723
21.915518848241778 21.355736131580457 79.429578457290802
3.819509514416568 42.744705791301335 69.166937401817492
-2.669094491045992 8.217202218747239 86.469635578009800
-4.236679877520722 12.943351737077199 81.182166085734821
25.826945460029588 23.741862472432889 77.778141952965015
-3.186712224249027 9.631707005412267 84.176527146227301
5.575918545599568 11.851680507113532 84.524400391201652
-7.434177268339551 19.684390279055240 76.178001477469124
-1.932063099286485 6.235111016131006 88.451476823411184
-7.685132452560842 24.161454285168446 74.099571271696107
-3.509820659684641 34.649541848890657 70.631325329575702
-6.919899228238780 15.013537103518145 78.222407848237452
17.291415836220146 17.719865395260275 80.157646778642430
13.080772458231561 45.507756274455765 67.631315084975114
26.456425801312221 28.826910576933013 73.258191238247761
8.351093655235617 11.837357784482611 83.119781358672611
-0.369188848549121 39.575246333366465 68.810000111139672
2.594552092140328 5.926019728054546 88.605676042161193
7.369154601073366 45.920132609926036 67.097431145043259
12.352615195491795 14.101912768818798 81.124937221570136
-5.039667034038773 4.615210381709628 86.111045957955525
22.513913001005765 37.094698158200444 69.356990630878656
-6.874481242302751 30.639378853409507 70.865212225147076
-3.861660617470990 2.168978158014079 89.528136979661184
27.790742921330782 22.940037243372391 75.197334577921580
-0.427202712097870 2.551896864138669 91.153429948411187
25.151664546924117 31.840742537636022 70.600682379673088
-9.317908683068749 25.415548319639182 71.882979828868585
6.783663426040806 7.848352483145558 85.048102633584989
18.722137739718793 41.432548005746661 67.362472897139241
26.506074529466137 19.331416612981968 76.760784405000734
-10.247610605147793 19.164169531295656 73.816523551230674
-3.483240831946142 36.766858503123288 68.415539167321043
-6.593588860837871 5.992011493021979 81.813540796627848
2.734603213231575 44.142999559244593 66.131534137081331
-8.122890235987263 9.212116918917800 78.561320618191985
-6.161333082612879 33.400235231786148 68.901092165941975
3.376717416960307 1.820542443392065 90.042004167161195
-10.167771894144511 12.676859752334055 75.623345911031265
17.849227658885880 13.094407109733098 78.680906501611545
-2.436146392397885 -1.297220040703880 90.688390885911190
-9.118639946050957 29.272436382340505 69.318968143579056
-1.657108612670773 40.076621749482293 66.370270591347179
10.986554086659089 45.875787737732495 64.612559947829453
6.825406336375795 46.480882732537843 64.464061635291131
22.875259665700806 14.991232570396058 77.099888010579690
-6.963592153810454 1.003699629304262 84.035311321385791
11.287844364918820 8.304163309997254 81.450567438542265
-11.981106643050021 20.027754388490308 71.898479427200968
26.131294984037943 26.100823105643247 70.394018483269761
27.638698947552378 21.869022214335406 72.306309202634594
6.375931515674313 2.498087072579539 86.917876653282448
21.972838105755297 34.948857320153415 67.002770466694358
24.138452859248911 30.310441994559611 68.392793540389889
15.749127884361767 42.239933699142071 64.650622866979020
-5.037322846951825 36.274133297942214 66.518017280533741
-5.430171742991275 -2.767307607311686 87.320335454796179
-12.329818327254324 14.946085889958567 73.061321388528057
1.447157627223170 -2.026709024873454 90.360265885911190
-11.952391185329441 23.902902445703322 69.825212812580588
15.689551890582500 9.232217543727449 78.464169474596545
26.882404504595687 16.290437976067437 73.844370741869596
-8.582832637067604 3.624686816241459 78.618849890411695
-10.194015496193238 6.697124298261676 76.353266705629977
-8.233871243124879 32.376824436642409 66.680886915265887
4.568526833079583 45.678136828699003 62.374314366465427
0.224721981724203 43.152001961309324 63.310924191762197
-7.736724808519272 0.046584585325153 81.025026411197729
5.009727410330171 -1.516015529535129 88.063513700642119
20.029668683426511 10.302675169944296 76.499861450043909
-13.700044192174655 17.160241358696435 70.792316743504657
19.496636970589808 35.927168945796836 64.760974964511561
9.259538034804686 45.198950806506097 61.505986670432677
26.154359157129178 20.549007235844655 69.939583061709442
-3.551185195556473 39.228739505556874 63.731652333462165
-11.368064755692508 27.707651919761680 67.135294660274127
9.761281906634819 2.131990592391742 82.487313291359953
-1.361827101130467 -5.993005219712845 89.126965104661181
-7.376790815517249 -4.137704589516738 83.486926066311526
26.620388555509631 16.856014247000754 70.991922121967534
13.565639955657552 42.004839212842214 61.409203642722446
21.960493123201402 29.320191906714939 65.756161765385016
-13.049485250095996 8.667267423808330 72.712228542941830
23.823182788922914 23.118259517488070 67.529075453773260
-6.914021555665102 35.203076707862742 63.834791376400517
13.651922224338065 4.206178294431379 78.384873151034924
23.091662517638849 10.284648629223000 73.844370741869596
-14.348202284887547 21.203678193371598 67.813093281681901
6.929343772775405 -2.915659401737007 85.107430060402152
2.128906161189811 43.942621183226635 59.156225403705868
3.301815448585293 -5.933438371323952 87.529280969686795
-8.399984821975929 -1.358938892754785 78.156745256446783
-10.075720508980087 1.655235024424928 75.676864485564622
-15.366148270976034 14.615467406834501 69.474900171079270
-6.601248344606324 -8.163743053757576 85.318672273719756
16.762665216691932 36.639296211609668 61.533074673436204
-2.182603820132988 41.073103395059562 60.035495860432022
7.069867814253101 43.749271226381076 57.561321267387370
18.198662605154571 5.919075622351470 74.734500706770291
24.473423190542064 11.729313050548795 70.734797090374684
-4.046854448914736 -9.756984493295782 87.227901726661855
-10.695112008454391 30.029104202221031 63.383658417249791
-13.274676167172393 25.446102276185609 64.905508059564298
23.818782191950945 15.608924673693712 68.104771228640487
-5.798649363074910 37.190010709597630 60.309012764399199
-7.752833372037341 -5.678205374261614 79.583975111262646
10.871261355017744 -1.331923718222756 78.327709512077405
18.867270229853631 29.477306329612599 61.838447460700699
11.868348914507967 39.777029392125769 56.063232259578378
20.690034904623335 23.881315460311836 63.872978488124446
14.775855719938928 36.821166826599487 58.047806826191120
0.238163182136551 -10.460079725666246 87.038088143812317
-16.033388455854329 9.790154633642814 69.064367265197760
-14.561810145892030 5.521813438151552 70.742464899565007
7.952418067898223 -4.755279088456930 81.392866578706247
-16.540303799475456 15.592522082313300 66.927039220761301
-8.814551689012472 33.116193872450552 60.581962748445456
-0.366242036867936 40.812522249680534 53.341206184546813
8.408283678698673 39.758258892679528 39.416016276725173
20.738565690941599 6.476721479196592 70.700297515270520
4.534241590727745 -8.505985734942181 84.471445658035506
-7.159828259196972 -10.192238647852422 81.847627005985601
-15.525630074471858 20.419927476033688 64.604946708867104
13.777717501594285 0.467305689236514 74.303731182115271
21.137024277486887 17.878866259407410 64.627785769059869
-12.165142353362139 0.677007486423863 71.929486444314989
-4.670092545055334 37.458809575325830 54.208969830222557
17.103609224132590 2.830667289287140 71.261152343427725
-9.006981863577579 -4.946517198873700 74.957277666930224
-5.420394241749449 -13.409381347706400 84.307847364216187
21.079118110386190 8.730832194483398 67.377618238382183
18.762695855479368 24.412967877493234 60.796037122308292
-2.434114144780414 -13.966411857262077 85.811588285846994
16.173993295586310 31.253129311298338 57.008254927492686
13.053258109464128 37.206909780449031 37.453706329339241
6.113877738797834 39.421436912879322 33.824001250419130
10.094433903291044 -4.095798050267376 74.847795754329312
20.575879603618546 12.122912815704867 64.943531013827482
1.059364719318299 37.421183753999081 35.832832267687635
14.193691746709822 33.071474370329526 50.863847101638939
-17.443721154826015 10.351908252905137 65.574049070678726
-8.814280860036042 32.609301489838785 53.797176517256510
1.130976880824653 -13.498403159406280 84.160805313891231
-17.219174742118490 15.062637905070083 63.727831409945168
4.675151550208344 -10.822478699450794 81.034528638783513
-15.673393551642059 4.018070714236513 67.657822738265523
7.276594442085758 -7.964191305464125 77.031842857328144
10.857107871360814 38.523676431350850 30.960266485572298
14.905742515001329 33.405387418362984 40.142567658265577
-10.556095398765001 -4.262250036212588 71.376735393134950
17.561422433409565 3.370479920380338 67.521502376760921
14.135460575256753 -0.421652167449722 69.421643104330514
-13.518745711843406 24.902876425516251 58.520219499799623
-16.243451558220787 18.453691460004844 61.579499889238171
-13.248858759287454 25.387807008943074 58.186963456157002
18.478647645887886 19.341876099751577 60.043318656847674
-13.542500990593812 24.766243183409777 58.099514468504005
10.925272003037525 -3.893234555755015 71.030345309154981
13.121143968781858 36.195082784145576 32.051780926833310
-7.521645327922285 -12.141340913262813 76.198829843163281
7.950466833916454 39.227961589582435 27.336757223749583
3.892886084670117 38.652027901983047 28.707502706489304
16.953878207811915 24.119227762782650 55.345996650117229
18.525080121048447 12.606416452746430 61.440181066328272
-3.895560364445827 34.152470932121652 35.957189081167087
-6.157357514308635 -16.435538234715629 79.908637264726323
-12.749463625271035 -2.796610457936384 68.082038853844992
1.512697329555679 -15.632757676840164 81.067808097325383
17.671277099134013 6.093049846607077 63.199856244083676
15.255637682975770 27.323182425283814 46.602003877104742
-2.599687254839002 -18.123718955465353 82.013703184879006
-0.525306062338140 36.554468617607860 29.309116738461594
-13.679494453344967 25.091516226466151 52.497098340659221
8.007337672225269 -8.885440373214188 70.938150339057842
11.941491481209669 -3.318025792330209 66.930825852846795
12.747872642635587 35.343766785621042 28.395087432827356
-16.209177303142514 18.455095093822855 57.725063350293667
-18.221337439344794 10.402500689492598 61.451795932997939
-8.006440337970451 30.805156280483999 37.915612837733740
-9.515206370320737 -8.961778171815823 69.924329498096029
15.398150950837772 28.381440208810059 39.593026171547820
-17.568335656387248 14.182584962752474 59.569166063108881
14.199261065858495 31.886966391137303 33.349053355532725
14.546665749124248 0.011433519384366 64.578298639813553
-17.902544190073790 5.561261045216130 62.962181870024523
-11.649288777609019 27.092291015926335 42.751220596606203
3.516968533728313 -15.255331026371902 76.756563137944354
1.999157068974592 37.697041127136011 24.182871717857942
5.302170715302145 -13.126144291675802 72.657463547989892
10.024666025261368 -6.474649153439996 66.995197465056407
10.735564284390092 36.836455259906550 23.418836851288123
6.205058722821431 38.368078190549127 21.699519527689784
16.759629935943021 17.519718748473970 53.843039663186858
16.942953464663042 12.524021577048742 57.000217000285744
16.678431658599994 7.465573098910602 58.986702650945965
-4.361192916781453 33.973238512941812 27.970430029611798
-15.181519529037477 23.167936483882343 45.351986855875083
-7.859943520324273 31.259685309757028 32.245856832582604
-6.836020474997065 -18.661275122069949 74.669869298454387
0.206012167714803 -20.059522104553558 78.420094857757675
16.060598579217849 22.412688766350708 44.077597949268686
-16.100641926399597 -1.160933474751066 62.743402583370830
-1.462844215777232 35.818831020660255 22.956263337843897
-18.936249119002099 6.124507036692739 59.191676080647106
-7.752296792215145 -16.037381629889868 69.657595957316602
-18.016956900815710 13.857630018352756 54.725870786955369
-11.490931529382316 27.846544530508591 35.254501758073701
15.061294424632358 1.851018503931056 59.588794902189235
16.309985476309489 19.325806195704246 46.804079081075656
-17.350155152962920 17.718317476607332 50.189731596828565
-12.281774211723201 -7.281344749916477 64.082889763529494
9.025273462803886 36.874279298920790 17.563236433426834
1.639426085359598 37.057005941685269 18.686294488675514
12.279057685578589 -4.186924972340321 61.896361387207307
-5.412130835457388 -22.260572894381603 76.824154680817230
15.825554226248594 22.749741371591391 39.502502210117299
14.723376911804150 25.067339555622691 34.972469866690837
-18.578796301436238 1.933186865933907 59.482761806956667
-19.052728997357661 9.139790100968183 55.925122975877912
6.243577575355193 -14.428848720564513 66.389214132820555
12.962858290499547 30.904194315220639 24.667030425553850
-9.443417262752035 -12.388410099460600 65.270333362277952
13.773609527558133 27.317773967434171 30.414577689881838
-14.614981924510957 23.947610692245330 38.069747624713131
5.173450966369733 37.203555010879867 15.224334134988117
1.662121321625260 -21.778293878460044 73.443769163858164
9.503634231953553 -10.115055218928381 62.989031299276306
16.173011378998762 11.382248048159729 52.096829083974121
16.343851986578532 15.293058147281425 48.432916572455838
15.695227715135074 5.899804913473848 55.444145314344681
-2.709756501443264 -24.441784584332808 77.257682079153881
-8.137042650458829 30.851753287265769 26.561901064240054
-16.759544697218161 20.234547485724033 41.186552058009987
3.727343092667793 -19.973867087391081 68.396584399688663
11.450326753383688 33.579697680205392 17.939819826339857
-5.127322330559364 33.004102437030731 21.908704442272992
-11.801241078530605 27.839998342197816 30.158872265592471
16.502581909667175 18.014761770241535 40.385917589792200
-2.718782074600475 34.467890518643486 17.406734492411868
-0.365081495409621 -25.301131418675787 74.139545819759519
-8.593252075369715 -17.028314229539134 64.254492009383185
-7.248761775922784 -23.084479480774405 68.154027551539713
-14.815741924955379 -6.750518422972902 59.679047336253745
-19.856091277074263 11.410189730557013 48.523686910823280
-15.425348177281759 24.130041624520484 32.764250741166663
8.677554623451437 34.702560372517311 12.747949704214431
13.204617495126712 25.516805098790893 26.203025335903657
14.226034633549506 -1.411602489968281 55.619719353136645
-20.055711174439608 2.272561704198111 54.783559471930943
-19.064801947986489 16.064657863426056 41.857850292277803
16.857681753498376 14.289484304025875 42.751220596606203
-0.115834184520383 35.286352848757367 12.699363609960969
8.003888028430795 -13.892959352945532 60.842700010011356
4.012931748167774 36.019392561357563 10.812277067140178
-11.540123029856355 27.717162122042353 25.881271713439418
-11.453958352422465 -12.530536348963983 60.535210827722842
12.468465289648067 -7.255815022215701 57.429340351235439
-18.124798825321449 -3.720081167439417 56.730564797227117
-18.271780029425518 19.828539959848882 36.266560618913637
-5.376597070887533 -28.860671147167970 70.589193050672094
5.760325497957114 -17.811049652530095 61.649110974896978
12.534261352345787 29.053861324773973 18.091875040560502
15.531894594866369 18.289998592389427 34.904155329505620
16.351926991432336 9.987447949758476 45.971577171795857
13.953860944933945 21.606703840254525 29.698074818923999
-20.836201846607317 5.809874014392547 50.593352494131196
-6.168637926209733 31.566603702037536 17.484954734632161
15.642071540192230 4.115092276968515 50.567111839691634
-9.182852194299793 29.139537731055338 21.083560416476768
11.600237278095795 30.575756523855397 14.147214736186557
0.982281272469347 -27.655487696149830 65.983694716405864
-2.336946758290475 -30.890831909159903 69.391216146976220
-15.069264634447800 24.462256944365343 27.544675745992016
12.875840388221983 25.283877695723721 20.709373481611255
-9.587075863972892 -19.939353205940751 60.998130371381052
13.985773953995038 -5.617717196209583 54.387158867589172
-21.126298415825417 11.519263697119269 42.191140035331301
-5.131523965140828 31.842496314779208 13.285553456897718
5.633018361022478 34.088534699415476 7.925431601348615
11.291020664513011 -12.600186845141209 56.770858830628875
17.030964246705732 13.101860519368300 37.637354115226401
-15.215707693930305 -10.128784936057100 56.395468590730282
3.628745245489053 -23.222239184486778 61.083544081858840
-13.172116370710386 25.628480490276257 23.101465485235103
8.343549285208757 -16.183159317955315 57.980151617744717
0.632630812782375 34.189464896539917 7.769700291790588
-20.626729980939917 17.574535329321773 33.948365778357974
-8.319847060039034 -27.390735177283243 62.408950323345493
16.358551424423545 4.492754765758093 45.962033256320453
-21.386388932956123 14.417820977284737 37.315364663259793
-22.235003277185626 6.717346390083867 44.412226183676879
-19.073067882150930 20.078626259833964 30.158872265592471
13.239620372288398 20.958940346218451 23.268208526437313
15.612717124490013 -3.800838570757052 51.020365394768916
14.422468014546116 -8.958026825747710 53.521415275738271
-8.801144819267344 28.515932677171108 15.062129222935265
6.427801331420317 -19.981662850204511 58.051785217861649
14.890252103351781 16.153133980103306 29.944427327463437
17.799351885489521 8.603488741856495 40.427636578790398
10.445572275155195 29.866218594579180 9.405744676311910
-21.066260390150042 -4.012995659922497 51.603872942071931
-12.531784559969360 -16.335145254472661 56.947954494280296
17.190701230910975 5.688159681076353 43.207058049236423
-3.965045784511279 31.685121170529801 8.640453330303904
-22.626497927819297 0.649629043972495 47.668805697667338
12.657826856441774 25.129073771215971 14.537690894353531
16.411890015460347 0.178156478101501 47.368307563072356
-18.663732137839549 -9.043145396322243 53.030042471932504
2.214195819420245 32.921859594792224 5.162520053106891
1.501566501053964 -28.136453678543397 59.945499301540885
-5.723256821419875 -33.285385611740679 62.112386015618647
-1.487197883228542 -32.265333759772638 61.471152028689062
-12.738898307422746 24.863131330376586 17.777513791519734
-11.261916426719139 -23.022903714532301 57.796869156072908
-23.277723125006894 8.625380105008318 39.446316513871395
-17.006367180888549 21.595638526721689 23.101465485235103
13.064680100635117 20.941053103431965 18.170606063207252
-22.334900747412860 15.368056943859289 31.887963054660620
16.930709967832129 11.671778388169479 32.230553377299998
6.784126066926415 31.119230058476855 5.103980936056233
18.249459895285192 8.608141891209034 35.995383329975688
-7.972288888651923 28.458043860970054 10.053937209052418
-15.870115307650305 -14.419857555855678 53.767976562362236
14.433216590499875 15.786856986797652 24.699300059411094
15.361108641502321 -14.419566372667374 52.424882129384699
10.368143730903334 -19.808607343333119 54.647514188453393
17.793348798556515 0.172915698309707 43.689114917581577
4.800085120581610 -25.619057675581356 56.738624947311365
-10.160726109020599 -29.761954597222939 58.440963769001669
-2.788964792026493 30.378565602916648 4.555608633671472
17.664088665957724 -9.928171071780525 49.756732308106393
15.920909769370851 12.339316392944696 27.512703146192266
-23.317620432116691 -5.253869823660125 47.294064087786843
18.886690402600987 2.569865213958862 40.448469673699741
18.002876858355588 -5.114150057355445 46.583163531494549
-21.475997178122221 16.874750223527737 26.138701054159764
-24.221818219226371 10.733500150778092 34.012930609497197
10.801478114017156 27.266943799338524 5.889776955180865
-14.091583972205452 -20.230794904981330 54.407852710969188
-24.555476681813882 2.686640930252365 41.259065146344255
12.956332752150169 23.492996206656414 9.486049443132064
13.870132623919750 16.745303925143862 18.976655115648192
-18.881484700157362 -13.625928897446713 51.198146044865439
-16.168590809708906 21.128434098857145 17.756589161571021
-7.308672041741611 27.856433624387378 5.962706566449742
-11.595400510034676 24.636397190845692 11.162234003478746
19.730875070195530 4.105480600466030 36.920627230358022
0.718934920695613 -31.542205098815241 57.409328417859179
-21.815672619852045 -10.086548115343302 49.038180303435389
1.943098658567718 30.025946036399318 3.074172197024655
13.697733930718645 19.160173712354858 14.057465150244655
-3.305881030954346 -35.100295496669226 58.238604833258407
-14.383530706354845 22.079284409309707 14.012641988215011
-13.289718253968216 -26.206734031549779 55.145261941161586
19.533325574915011 5.885515890435627 32.723730093129127
-10.112536749963327 25.554359969616737 7.259237945082742
-24.950189710170953 -3.333849241157963 43.433879413022822
-24.440113921791582 12.390915044328604 28.230670148535822
-19.722001242670217 17.742709373204860 20.112075946316647
-17.258664361773796 -18.630839378469251 51.569442404383459
-7.920683644026726 -35.712106629705367 57.417333661655988
19.898978767632698 -15.843757969938062 49.400834676685086
-25.797261318337487 5.490713560362209 35.380406972474148
7.926845140758478 -26.579695797446131 53.763804228763348
19.907948320984183 -2.743248889153113 41.000159902776623
8.020511093893585 26.739031725816513 2.890468295796141
18.788657565663399 7.363173098061979 27.203359459373917
16.778184714831440 10.071170246901408 23.015416571646352
19.980682179510318 -6.327016547397755 43.329872290451263
16.106439447740740 -20.710272567088587 51.016022976963242
-12.215420846042598 -32.285436379483322 55.603401679311119
12.979342488241342 22.356166743906794 5.559683511843065
15.555598882171562 12.049232683993093 19.114138367988154
21.161204641071471 -11.621990237324988 45.952487415681944
11.476276820017285 -24.919244503258003 52.169392626859718
-17.499902308113242 18.645275218704892 14.733857094547355
4.190917702154535 -31.013577569260736 54.325045201113944
-26.137190659609985 -1.609173018855665 40.062341519617625
-26.299293107201493 1.307593983639990 37.623612800748134
14.672009989652132 17.776507810190566 9.606896387551709
-16.032571283650743 -24.255724307511102 52.160859782862673
-3.489307631670922 26.992843139090660 2.029310526197265
-10.213863387278890 24.290832104476170 4.474985650051882
-7.736945902061807 25.451010589014519 2.987998647137465
-23.247266746712803 -13.273930051542704 46.860323605597998
-23.432650326898369 13.610733971099449 22.547714089913420
-21.054229548558926 -16.560364182428611 48.605248723041541
15.160212281346249 14.038130190262947 14.267093081124919
-24.794783337835419 -9.909545364986393 44.604416166151523
21.865210691108111 0.760668615217745 33.584489267322716
-0.121095111517109 -35.253447332680310 55.214957914552592
-4.047927211270141 -37.576744005889218 55.982016902783023
21.618830702839933 -2.426594465740275 37.499705221686561
-26.330509137947782 7.980137756864767 29.430146868204950
20.934558419812376 -20.228063320457057 48.975258003493998
1.595838808434679 26.642585074599022 1.393118758710253
21.665144341987023 2.703998568951017 29.166884389172338
-15.331054643369699 19.506536161631704 9.571041329224157
-15.013613502749161 -29.999834779125027 52.907734748997520
-10.658398386622258 -37.093521698350585 55.128854593978701
-12.753821953783246 21.403583715887645 5.570960007186519
21.845674562807936 -10.486113853968138 43.286633697923499
23.425347061551232 -17.680491870521337 46.921182688280616
-19.230920448249318 -22.638931410586846 49.418682710264477
17.671056122171009 8.143400431782682 18.491334821431849
14.992167223159036 17.200556738724881 5.828594791030859
-13.308292413133136 -35.021922021281306 53.642706903194252
22.176937424279028 -8.478040876539463 40.626904279221279
-26.060103938069144 9.422222409309223 23.843890949926504
-6.905541883657816 -39.224216872764927 54.734114501118931
-27.485578528590217 1.200835159360135 33.774181840131142
-21.689615874158548 13.883765631870700 16.287642846079905
-27.477926407927306 4.211521411734426 30.325936869461984
-27.096308896440597 -6.896652046892913 40.531625544471687
8.533398029469273 -29.965336092114427 51.345195322262640
-24.318516783594433 -15.886175232080289 45.264872765775692
-27.460607840182714 -2.538803217508800 37.009213893341411
21.667506158805370 3.120548666627607 24.311997348329733
13.477984948457248 -26.191067017178632 49.818787236240588
12.094035020682284 20.632743253634615 2.612845608932560
-18.774787085180591 15.864841977879404 11.586336331394135
18.117794061810468 -23.512910722963436 48.423831032559917
-3.462219008889369 24.343724450214051 0.908012106246160
17.195626222003341 9.240312008738798 14.502546207196712
23.765807819118283 -1.338825295167301 30.111836408186900
19.954142045140532 5.090428649144607 20.181308389794847
23.701397093567792 -14.455408053330220 43.351447477997922
3.522960968686727 -34.728861120535058 52.207777131907498
22.496307681238758 -21.539617550751988 46.808768586084675
-24.944663267721005 10.461684800866063 19.352411470420023
6.068033693956835 23.204149393665180 0.885635373351039
16.585228870325835 11.826932725009726 9.029378551139262
-1.595012512432022 -38.535733235939801 53.219421495399018
-11.898716002808307 19.891399643956884 2.191962174281306
-18.058042689276160 -28.782008478735740 49.929434156145554
-22.797956922422646 -21.031966267368404 46.484131519912701
-8.327976207148199 21.427447477534169 1.086284337825719
24.571648159834243 -5.243009175651594 32.850277473066583
24.686804489790322 -19.319161046056912 44.650378011070607
-27.104067649509116 -13.220087659224392 42.344208869586289
19.236367305599931 5.681585414463557 15.341155255012069
-11.079647285550362 -39.463604190592889 52.696365643917702
24.215484708315401 -9.023683175212177 36.389691527360775
-0.217771249335874 22.784180825121034 0.367538011560263
24.347344560375564 -1.293317765321167 24.796101396936219
-15.647525831259047 -35.090390369250485 51.115822424743058
-15.921968973888722 15.990777402108725 4.636709817365797
-27.919540620056079 4.455491130861197 24.607866402233540
-18.468207434940123 14.073388718313584 7.498543092886893
-28.620913628382628 -6.842569108212643 36.639575397227389
10.934299027188397 -29.623627613897650 48.501008790727937
-14.520513062539354 16.676147280648177 2.606971103303724
-21.414717713557089 -26.269971474433877 47.261548029353250
-28.650067617701499 0.328293881140756 28.961153460312747
14.961561261719217 14.173648026547019 3.490790860623217
-28.774380131089856 -3.648130624273065 33.158055253762626
14.351845241215599 -26.827110066927904 46.832209393074599
-26.343401950422276 -18.827805353669071 43.576204707619148
-21.588245950589581 11.441349953585714 10.849452724872512
-5.703720394773545 -41.297284165016656 52.173658645573980
18.675279697960274 -24.115434483679323 45.298770012538753
23.177804215634115 0.349088528985501 19.177638607240677
26.021602760411980 -5.493092607354073 28.071389751814273
-26.923284439973731 6.489921041228354 19.130010708328907
-5.565855492872537 20.009575416822994 0.257406449386713
24.475269958789017 -13.937331012686185 38.785601617241397
22.189477070058881 -21.508148041379297 43.870783154412045
18.897982135165517 5.930967628909011 10.599237691093848
-28.975548047088996 -11.307815158165115 38.608128989138905
9.601036216885767 18.101977636181108 0.672112555436585
6.706381368953727 -33.677560839334831 48.808614557181009
2.090511023864890 -37.912551256073705 50.273311853624236
-24.887467020123470 8.040468844743961 14.322117611631697
-20.621120990568734 -30.500317261964032 47.539578351158013
26.710938056462336 -8.466490584206444 30.096153072916696
-1.573194789885870 -40.639011761971254 50.924762219539879
23.778091044680789 -18.692665586169049 41.443286532945997
25.501687515022397 -12.722505914765611 35.684113891546012
-18.888025805808187 -33.828671671826044 48.609776302193758
-25.002612095006601 -24.479010602296334 44.418900982398092
21.349520449182066 1.662433984827500 13.369142842806189
-29.042175506456871 -16.339933432304136 40.435971930829574
-14.391606452776164 13.864015890650117 1.076981374271889
-12.250532117684982 14.828325943830956 0.523962408008185
-9.435085374960858 16.198714624311865 0.174793987364216
17.012900981465670 7.836205907204258 5.034756117218489
3.343069524963855 18.385883349968491 -0.647070312500001
-14.433494231201403 -40.648045410662832 50.075166627606620
-2.072145679068916 18.363799446894987 -1.022363281250001
26.843777058280086 -12.352698529327597 32.210143851682005
-17.433504363950238 -37.873597228741552 49.011222419557058
9.936047313785739 -30.459250588039662 45.751577354027802
-9.818920658166133 -42.935123710763250 50.440121164265754
-29.203969370827476 -0.923413109597387 23.951505797890906
17.899017745987379 -23.731261962378504 42.751220596606203
-18.653976127061728 10.029618000393647 3.817622731413791
25.674031337744886 -4.409216814070819 18.839312807866264
-21.325486886287830 8.569718716194240 6.712157140719581
-23.434084887884175 -29.792336530220656 45.226102493253876
27.078846850085394 -7.312885661753899 22.902491778415310
-29.713502144187139 -5.384638535347340 28.760385882265307
-30.020692557080110 -10.168433060984112 33.789132055242888
-23.754536885675815 6.900670613948517 9.597928800684437
11.931210149975021 12.672214668668808 0.734206574789572
-28.570921778951373 -21.584765978363802 41.799137675075123
-16.342562164198821 10.400066704701830 1.550614819159634
7.372149924281453 15.826439947626991 -0.569042968750001
13.281296471271682 -26.732793951860327 43.483842964257953
-27.111697608298638 3.749525195008923 14.940730657154706
26.286564714676636 -16.233903596824256 34.996845673301650
-4.782868022751401 -43.007865683532508 49.734553611046650
-30.334031021113923 -14.687798371898207 37.111536613964454
-28.391205186622404 1.368005715619235 18.665202975504538
20.194194949390170 -22.448444643756343 40.853212142473993
-21.697979563907882 -34.013320079359517 46.171557364690941
24.946524236044599 -19.111225000284925 37.301502177001424
23.875524231419380 -3.181093216826750 14.057465150244655
3.088661365896789 -38.101014517153828 47.525713085395083
-0.536253896748239 -41.228981392689320 48.655031148091354
19.125511507049353 2.367829831283125 6.824467035667654
28.130301155496447 -11.714113756881334 26.674283949399051
5.878359737878979 -34.738800183155760 45.928614381531858
-5.768428167465232 13.948708169960630 -1.908496093750002
-19.839718680902358 -37.941469489872595 46.939893452874344
-30.266279386794288 -9.730511194134696 30.200664000044082
8.796244366881929 -29.768182134490353 43.401675049550711
6.887538375167397 -32.407207502178387 44.237492931011467
22.547188210748690 -22.181365303092900 38.322093417846482
-13.283077849687288 -44.074931047192955 48.736394291583210
-10.386680959254461 10.962869080060688 -1.162109375000002
-27.646783226087710 -27.632944845029726 42.717655606662916
-29.192668533014778 -2.843329340730373 20.160003253067607
-30.882264596683470 -19.599079696935448 38.042597803544247
0.108662179712013 13.168054570078150 -2.983300781250004
-14.065014417821814 7.806577766701846 0.101497446551052
-23.364138803674820 3.971720257400630 6.664212493907217
-25.568849384896151 2.431832668992962 10.076676554221082
6.474665908355320 11.755208680850233 -1.931054687500003
-29.629249248665438 -5.864609271547100 23.531818508040807
21.106031478548125 -2.387166994352957 8.784037127816704
25.471010629321341 -7.203310255449603 15.082383695786991
27.991923959244527 -18.342096355413890 31.852081671211575
-16.972835877169850 -42.396516880849120 47.484094543386895
13.659126777058082 6.754556734438895 0.819158919933702
-18.505640596000976 5.027811525623102 1.668290962847583
-8.993880099546763 -45.212110297299191 48.241792628828755
27.024883341919882 -10.056507069345752 18.359782425528326
-30.350225668194764 -24.129484928112173 40.134134548112613
-20.915018842780700 4.057603745959954 3.669366520555418
-25.170242637204360 -33.186188948363430 43.895066624413801
-4.295361499705234 -44.242829487088564 47.641141675753104
2.719776046720463 -38.551370707482910 45.371323248477275
-31.150539272902808 -16.690543756487653 34.245750978919077
-30.037462794228755 -9.921679042601964 26.957682850442250
28.333622782510623 -12.970429683199939 21.779959387365565
-27.524432535327197 -0.607965539612136 13.251172954897495
19.198938251415253 -24.905938447232831 38.151066662498188
26.797728223158220 -21.305719026902636 33.754242377910806
14.541955887367674 -26.641185135915816 39.623135368529660
29.002023331199393 -18.013538407695574 28.410989237916294
24.631296371873102 -23.194375922292036 35.611980636116037
9.097151227641216 -29.323955373925369 41.121895790249532
-28.362043079656523 -3.650007727572320 16.225895482543567
-22.781966535116783 -37.779070494027337 44.518615620700672
-7.144680743318820 8.676739658056878 -3.287109375000004
-30.539757403543508 -14.311148753093910 30.226775218410083
17.191555000334642 -0.415967100160409 3.555391458702407
5.722938839750853 -32.216186659223958 42.332771982922345
-1.100350860757368 -42.604497786469665 46.019267924810492
-16.338987617880278 2.584021235079155 0.301422002895445
3.493102124305327 -35.949966441259654 43.692629710424356
22.331193811739297 -7.538459657742549 10.812277067140178
-3.049930712461236 8.403208238593679 -3.970214843750004
-28.488437879563040 -31.682983546388797 41.966987473101689
-28.777855186308724 -7.188493744245315 19.124719726014291
8.178561122754498 6.263471681830958 -2.399414062500003
-13.119732155410247 -46.265491571232900 46.794698725999339
-10.271782832114388 5.420837084755224 -2.773144531250003
-30.700636092003037 -28.181315741008088 39.960647963487936
-20.030677603773178 -42.210339824435302 45.075557949641926
21.965418566019903 -26.033133028736401 35.770525349315605
-31.910775173360019 -21.210747945744426 34.772148468721198
29.020411735111736 -18.104670492574616 23.816987281417259
-31.926025810174895 -24.383482679771138 37.218219773893175
24.648585925918155 -11.918688740503173 14.577880477816258
2.579084075827382 6.454420267460026 -3.826757812500004
-29.138377012430599 -10.703263372720309 22.397272823895495
18.187179123626436 -5.495770016711476 5.908939978856130
-13.316216938241302 2.056747830743193 -1.764843750000002
11.889008115853487 3.085068326006928 -1.305859375000002
-18.724913793645836 -1.080104485591667 1.208800860810810
-22.649272594662346 -1.502665202399304 4.619038569047808
28.582779667558647 -23.053925052408868 30.137970066040673
-27.113599237589547 -5.273176577510988 12.394402731770429
0.063422136398200 -40.936159549921918 43.998675069144589
-7.589302116348486 -46.786342997615705 45.847355673132178
-5.977434944867964 4.114119276498354 -4.157226562500004
-29.470179130851559 -14.710901630242871 25.618280491378066
14.969008327950620 0.084700263817131 -0.379296875000001
17.527945744541594 -28.428381547341385 36.128803911800922
-26.945002186050388 -36.100445683650058 42.294598258521425
-25.371158265246525 -4.342522375794237 8.519209120228426
9.241084468386934 -30.624645981332222 38.384880355370903
-1.718392465078578 3.712837487847210 -4.484570312500004
-16.445943133840423 -46.330886783901860 45.211555217053672
26.381841370625171 -17.405938853836759 18.586141544610260
25.864151285736476 -26.631759686561658 32.571566285983145
5.676913531003721 -32.814733542331453 39.588722181064831
18.038792640946689 -9.638794004903884 7.891675907792630
6.827049205713049 1.667911442254715 -3.085449218750004
-31.215346139775615 -20.779852879023203 31.229314022431179
2.835143482602154 -35.623834035303609 41.024559655699662
20.092156977984718 -12.681892655352181 11.195058998513439
29.309775662352170 -23.415907626825270 26.165504514518222
-14.569890021554150 -3.476061593523647 -1.023730468750002
-23.373760076064148 -40.946511460455341 43.279415841381976
-30.599250645614724 -32.547444594974898 39.700408098601713
-29.963919648963621 -18.654816482902145 27.954483325663659
-27.532286797832846 -11.764156668427137 18.559798963428207
-26.674214195385705 -9.556340520997340 14.885163704876231
-9.698497588672435 -1.012780176446325 -3.387011718750004
-12.393289437490061 -48.476657371473024 45.022019795776821
1.467260964204704 0.410708046753167 -4.109277343750005
10.781867566920626 -2.140522319206282 -1.770117187500002
0.270216463699306 -39.401633751492803 42.009698402768336
12.318881332202363 -31.076359013240079 36.162095673396770
-32.269188974963761 -25.147681401761901 33.594487922019241
13.463103342150958 -8.758173964309769 4.513484653215690
-32.312663962568216 -28.933615514658804 36.583129914242718
21.857053482101357 -16.624234851869865 14.402242550209385
-3.961621234492687 -0.586639668140169 -4.351562500000004
-4.504715414271824 -45.710533128410184 43.953870458657619
21.635875304354009 -30.042719317531635 33.464378221306113
-27.525157111855187 -15.411812850945816 21.249461784846055
-19.596364047490201 -45.347772655952596 43.699656810310302
-22.118698653420118 -7.247173836772222 4.450543505550458
-24.771741663629605 -9.534555783973147 10.382851601007491
14.824268269535930 -13.150837342116949 8.540820283480555
27.783330551616316 -23.340002715526200 22.080438731273148
-2.198916954170788 -43.058708998900968 42.710187963373230
-17.385666963790005 -8.111897995156518 0.975795513249598
5.043313580389256 -4.354946004363875 -2.957617187500004
-26.031235712833801 -40.113259997042690 41.546714092319405
-28.263404219092799 -19.473529244552935 24.597108904685992
3.337216515610520 -36.008242644092199 38.384880355370903
16.495118989530194 -16.783380764435705 12.010031293981974
28.052809141563934 -28.415411570185146 28.018260862260597
-22.820481558524914 -9.611733366157305 6.792315955155034
-1.096144743630373 -4.693510925142404 -3.835839843750004
22.098112731539867 -20.605077782645949 16.390659148128531
-10.135182319616245 -48.718207038749007 43.964222534356139
-15.203580070199394 -48.407257343406840 43.839501519980118
-11.628438468433238 -8.049669463602672 -2.123925781250003
-29.139554308431585 -37.321940687618508 39.730399742400643
16.470277999185726 -32.394818345904930 33.739283407173858
10.360089452346619 -13.245502866065303 6.644269015039165
6.885500216079030 -34.434760036978425 36.394420197390318
-6.664321799769573 -6.103887790158706 -3.574316406250004
9.828581348282905 -8.443579930556240 -0.959277343750002
-29.576544229760458 -23.237601944408794 27.672510398603279
28.197373173101894 -27.206282122594860 24.365796839430576
18.355902461607556 -19.984384325830526 14.557782462512368
-31.167495977259613 -25.799343854385047 30.320720257469770
-23.286873357221044 -13.711902088608806 12.553899079306936
0.690444546688422 -38.983452846366824 39.185553442559318
-24.043773944115070 -16.402423245997007 16.871343349622514
10.965978237218369 -16.755825732929939 10.113091379199274
25.056053557715490 -31.641869461216061 30.367660004865026
23.803335167473886 -23.864475781141582 18.775972695006256
1.149657065431310 -8.219402099582572 -2.901757812500003
-22.507544958458489 -44.248890705909524 42.021330699028326
4.635175789966547 -9.660910496618575 -1.867968750000003
-4.810696841496867 -45.841059821453392 42.290776593986763
-18.806986652074880 -11.366056927777695 3.731728831198094
6.131455010555591 -15.761111134822565 7.891675907792630
-3.420298909666707 -9.901703018227041 -2.770800781250003
-12.231493833100656 -13.530153465187638 -0.457910156250001
-25.511023965488157 -20.428089874535196 21.254815260239333
-31.820333760219146 -34.478721561080214 36.394420197390318
-20.131208377834728 -13.806469403752486 8.501932624798473
-8.273447010830086 -12.047309238218322 -1.895117187500002
11.118540268410314 -34.977376177203901 33.724320693646845
-18.391725592708720 -47.601296093405438 42.582752095063690
0.653404948230019 -15.003060559923767 5.843870373342964
12.807302753288807 -21.318471416523948 13.942985984559659
0.526067820978260 -12.715455467137526 -1.384667968750002
20.477044328713173 -34.014828056657997 31.363526539343415
-8.491249776663679 -48.319509044156995 42.571463785774938
25.431634136359897 -27.809432598613409 21.394043968466814
-31.920157970334735 -30.552632902838138 32.342704895341981
1.851879373725856 -18.157672041955536 9.994886851255320
6.330115894950480 -20.100882642558215 12.259501142180879
-2.877988819811487 -43.420378339572601 40.142567658265577
17.871866874210188 -24.474665321546667 16.669439670231167
-25.841156597739509 -42.436529169760128 40.036955229669296
-19.451781631377383 -17.536984719819511 12.913504468279708
-4.379589743104270 -15.274300391324694 -0.630664062500002
-14.058189053303655 -14.121054938381757 4.031771299403668
-27.059562498594381 -24.628619082121769 24.683165392953661
-6.214081253160658 -16.087518906292512 6.410432464346298
26.428755484740250 -30.908658527426674 24.328137393354908
26.114843764095220 -32.820180926412746 27.155314786575925
-22.240157999258678 -21.897761489893849 19.304725027373230
-4.095138804788185 -19.262982938917613 11.035881304345908
-11.080567502920765 -16.180607166743730 6.584557004854282
-15.194333984046924 -17.160987868674930 9.468185909349820
-14.138294060580648 -49.290706833578184 42.279306922178343
0.692338442616432 -21.357124698761950 13.315040438815045
2.595373270471823 -38.856023053569452 35.851986442555209
-19.040172399593946 -21.113198316980913 16.607409347650226
-10.435701807869805 -18.789239807552644 10.585386778869823
6.710723626340505 -37.495170814902245 33.828980887729500
15.258526777492699 -36.233542865662876 31.564445425527158
-29.209978817292384 -40.092889068565782 37.660244617702588
-14.817514980703679 -20.461890918457588 13.759303253438969
20.647129881473109 -28.395732794220184 19.071821057304902
4.033549970379191 -23.812800065127004 15.067192271346963
-29.236649915077614 -29.162319428807482 27.869408435541207
-3.657474417262656 -23.073702435836825 14.915467147971642
-0.871202238866653 -41.767976462120579 37.213587584993455
8.210058597790653 -25.109734475076031 15.621293738515298
-7.116191121791459 -47.468649599795178 40.676465399433773
12.459088073424539 -26.523376964107200 16.560916030040172
-9.683664169556193 -23.377185691460628 15.565178860185181
-15.255078313134165 -23.678509164512196 17.130859848521322
-23.250338430921982 -26.500923103663279 22.402644908311775
22.362983949072916 -35.914316487118931 27.986375191046584
-18.851010735461280 -25.349736348994281 19.697265918801612
0.147515632712655 -25.725398925302233 16.333984168747026
22.610967100580197 -31.814128192901109 21.399400365077128
-20.502506602151733 -47.425548363241283 40.348310428975900
-31.717329362163010 -36.058898827339313 33.132881640115578
18.401023829873608 -37.384008067817255 29.608834597148874
-30.898136906164410 -38.923116716718027 35.152571510403050
-26.116676875820531 -29.582545798170823 25.107926036716510
23.416625864730911 -34.736168356566829 24.387316085480165
9.802394163087667 -38.707854623427664 31.507825188604063
-25.570549673251801 -44.511970758589108 38.313114019300670
-11.592897569304936 -49.515212929621121 40.610361086058404
15.185460019518262 -30.025037892523429 18.286177046121537
-4.821961241278119 -27.288167907951554 17.573678595381082
-14.193173612397329 -27.277638475986180 19.294130172449151
4.470314754015793 -28.651480569067591 17.276506078450236
-3.453696435963102 -44.656188287637150 37.018527131711870
-5.935038880545006 -46.670056207983592 38.411752072266594
18.287038998940542 -32.441473011743078 19.792899365231584
-9.571004330221298 -28.358493916255338 18.844592549730514
-15.851574610243295 -49.803553460224791 40.146783175091045
4.296889842446477 -40.853105814228137 32.398716152883900
-18.442093325219385 -30.372496787333468 21.881878488391425
9.347788271215295 -31.630806884617492 18.186358862045502
-27.865724359871685 -43.321096368850924 35.847198658641666
13.743739364925101 -39.845826002970533 29.124710234126709
-29.736164260921065 -36.176439985283920 29.687579609811543
-1.190484446054092 -43.520409270405928 34.171550576801870
-27.128156396617161 -33.912756776463731 26.647530721045094
19.061104199778296 -35.923048105657372 21.860419246197036
19.911694454108929 -37.992806165317994 24.683165392953661
-9.710802488447889 -48.890586290681689 38.250189595013126
-12.848459644450058 -31.875457665600187 20.917772849175940
17.409149866312855 -39.631646203612355 26.840087604051476
-0.266767199338059 -32.021514974338103 18.717938384369397
-19.000916515663576 -49.299731880407201 38.313114019300670
-23.342762609582628 -47.172779807257704 37.130111611621167
-23.018213265559396 -33.858904123092714 24.414214668558323
-6.659348765605966 -32.814952644413225 19.931135433588128
-29.330245083625464 -41.277122557283981 32.464855317112836
13.646565823765561 -36.120663871006045 20.160003253067607
4.618807208089171 -34.380243537031582 18.944948081392532
-15.086799684618223 -49.895755990779328 37.564006470130472
-6.810471933088866 -47.364669782294101 35.361058253343892
7.426024803203049 -42.493752928687094 28.797391944745236
-10.978845959213533 -35.983456707805352 21.603019174149029
14.944189918761239 -40.168131192098159 23.139114602343415
0.987768151425562 -44.173327849010512 30.211109284889272
-16.785325878461702 -36.440755618663793 23.036927955436251
-28.299304650414420 -41.181768495820982 29.635088980078077
12.023456891441430 -42.334390272744365 25.956376302237910
-25.466502302244631 -46.163260356872250 33.824001250419130
-2.745161741988433 -36.680408954608573 20.197288890017528
-11.854361429116141 -49.507952744426625 35.433575773996481
-25.782385287672327 -39.673533513060775 27.219371853095137
-20.649921344422978 -48.915012377164864 35.356219858889013
7.406233011131802 -39.003931661226851 20.437161610839876
1.492333300207291 -38.359164301502489 20.277212350368970
11.427930097285774 -40.449659452563125 21.286938438735277
-6.755409189140337 -38.446153225749939 21.463685250382142
-21.310111958124786 -39.610700515017989 25.011169271653898
-5.410220818582884 -46.535957394194540 30.996531951369217
3.008732637662311 -44.563627730319041 26.877510893938830
6.954573159988498 -44.025839458148148 25.338997493961440
9.303426172149777 -42.666983412593282 22.886361108800546
-25.479051294131235 -44.840536260097885 30.070008965671249
-11.806356426187751 -40.355011155346261 23.117600627209939
-11.049938397515305 -48.805785478285699 32.383444645976446
-2.484392323517980 -40.605673573332524 21.469042994431298
-16.849420005444482 -49.470533444054830 33.142952256784213
-2.285017916580790 -45.253225933640763 27.107259003361651
-22.353588579261253 -48.142454854617249 32.174413694807640
2.032159895402312 -43.200308586405860 23.235933516215219
-17.127522876215838 -42.266291146231687 24.828365825525378
-6.043758307721477 -43.182684354340552 23.903079141601342
-21.687812966630545 -44.132311419515744 26.984400429707641
-7.428591172890249 -45.941885681506243 27.272737374345521
-11.220514015880832 -47.410925347442117 28.897785830513175
-11.946381266373608 -44.661301093689659 25.602173049374329
-20.246129055331146 -47.761647040328079 29.619337072887213
-15.290366392487716 -48.678663379337998 30.054319381962756
-16.625978624942690 -46.426937549366528 27.315419571337610
